<svg width="66" height="66" viewBox="0 0 66 66" fill="none" xmlns="http://www.w3.org/2000/svg">
<path fill-rule="evenodd" clip-rule="evenodd" d="M53.9234 8.1846C53.6118 8.1846 53.3591 8.43725 53.3591 8.74892C53.3591 9.06058 53.6118 9.31324 53.9234 9.31324C54.2351 9.31324 54.4877 9.06058 54.4877 8.74892C54.4877 8.43725 54.2351 8.1846 53.9234 8.1846ZM48.0845 14.4407C48.0845 12.7126 49.3218 11.2534 50.9524 10.9073C51.62 11.8246 52.7021 12.4209 53.9234 12.4209C55.9514 12.4209 57.5954 10.7769 57.5954 8.74892C57.5954 6.72092 55.9514 5.0769 53.9234 5.0769C52.2036 5.0769 50.7598 6.25929 50.3608 7.85554C47.297 8.47801 44.9768 11.1985 44.9768 14.4407V20.635H36.2085C35.3503 20.635 34.6547 21.3306 34.6547 22.1888C34.6547 23.047 35.3503 23.7426 36.2085 23.7426H56.344C57.0167 24.5879 58.0544 25.1297 59.2186 25.1297C61.2466 25.1297 62.8907 23.4857 62.8907 21.4577C62.8907 19.4297 61.2466 17.7857 59.2186 17.7857C57.4735 17.7857 56.0127 19.0031 55.6391 20.635H48.0845V14.4407ZM22.2166 5.11393C17.3403 5.11393 13.3497 8.82479 12.9263 13.5964C7.25391 15.6664 3.96564 21.7425 5.50057 27.7148L5.50096 27.7162C5.63591 28.2392 5.80912 28.762 6.01604 29.2697C1.76821 33.5138 1.30976 40.3854 5.20643 45.1728L5.21029 45.1775C5.94271 46.0701 6.78311 46.8404 7.7279 47.4856C7.46519 53.5821 11.8929 58.9926 18.0683 59.7821C24.5672 60.613 30.5434 56.0431 31.3764 49.5282L31.3782 49.5126C31.4369 49.0138 31.4663 48.5141 31.4663 48.014V25.085C31.4718 25.0088 31.4767 24.9326 31.4809 24.8561C31.4868 24.7486 31.4816 24.6429 31.4663 24.5404V14.7248C31.4833 14.6329 31.4922 14.538 31.4922 14.4412C31.4922 9.30098 27.3687 5.14491 22.2259 5.11393H22.2166ZM28.3587 24.9655V14.4412C28.3587 14.3544 28.3658 14.2694 28.3794 14.1865C28.2477 10.8732 25.5557 8.2442 22.2119 8.22163C18.7818 8.22412 16.0201 10.9669 15.997 14.3944V14.7499C15.997 15.4591 15.5168 16.0795 14.83 16.256C10.1339 17.463 7.30419 22.2461 8.51027 26.9405C8.54355 27.0694 8.57999 27.1983 8.61941 27.3268L8.68642 27.2864C9.42229 26.8449 10.3768 27.0835 10.8183 27.8194C11.2598 28.5553 11.0212 29.5097 10.2853 29.9513C9.79544 30.2452 9.35749 30.5333 8.98275 30.8455C8.8801 30.9311 8.76968 31.0012 8.65431 31.056C5.11376 34.1425 4.61119 39.5159 7.61467 43.2085C8.30356 44.0476 9.11562 44.7372 10.0581 45.2827C10.0809 45.2942 10.1036 45.3064 10.1261 45.3191C11.4429 46.0653 12.9352 46.46 14.4476 46.46C15.3057 46.46 16.0014 47.1557 16.0014 48.0139C16.0014 48.8721 15.3057 49.5677 14.4476 49.5677C13.2345 49.5677 12.0324 49.3807 10.884 49.019C11.3412 52.9304 14.3937 56.1793 18.4624 56.6995C23.2723 57.3145 27.6757 53.9342 28.2927 49.1418C28.3367 48.7652 28.3587 48.3894 28.3587 48.014V32.6869C26.8806 34.4242 24.9456 35.7826 22.6936 36.5681C21.8833 36.8508 20.9973 36.4231 20.7147 35.6128C20.432 34.8025 20.8597 33.9165 21.67 33.6339C25.4243 32.3242 28.032 28.9233 28.3587 24.9655ZM34.6547 35.1003C34.6547 34.2421 35.3503 33.5465 36.2085 33.5465H45.3583C45.968 32.3632 47.2018 31.5541 48.6246 31.5541C50.6526 31.5541 52.2966 33.1981 52.2966 35.2261C52.2966 37.2541 50.6526 38.8981 48.6246 38.8981C47.1031 38.8981 45.7977 37.9728 45.2406 36.6542H36.2085C35.3503 36.6542 34.6547 35.9585 34.6547 35.1003ZM48.0925 35.1003C48.0925 35.184 48.0858 35.2662 48.0731 35.3463C48.1282 35.6002 48.3542 35.7904 48.6246 35.7904C48.9362 35.7904 49.1889 35.5378 49.1889 35.2261C49.1889 34.9144 48.9362 34.6618 48.6246 34.6618C48.3778 34.6618 48.168 34.8202 48.0913 35.0409C48.0918 35.0519 48.0921 35.063 48.0922 35.074C48.0924 35.0828 48.0925 35.0915 48.0925 35.1003ZM36.2085 46.4602C35.3503 46.4602 34.6547 47.1559 34.6547 48.0141C34.6547 48.8722 35.3503 49.5679 36.2085 49.5679H51.7036C53.6863 49.5679 55.3148 51.1965 55.3148 53.1791V54.2578C54.1901 54.8854 53.4295 56.0872 53.4295 57.4666C53.4295 59.4946 55.0735 61.1386 57.1015 61.1386C59.1295 61.1386 60.7735 59.4946 60.7735 57.4666C60.7735 55.9043 59.7978 54.5698 58.4225 54.0394V53.1791C58.4225 49.4802 55.4026 46.4602 51.7036 46.4602H36.2085ZM56.5667 57.2862C56.6644 57.3054 56.7654 57.3155 56.8687 57.3155C57.1204 57.3155 57.3581 57.2557 57.5684 57.1494C57.6299 57.2398 57.6658 57.349 57.6658 57.4666C57.6658 57.7783 57.4132 58.0309 57.1015 58.0309C56.7899 58.0309 56.5372 57.7783 56.5372 57.4666C56.5372 57.4035 56.5476 57.3428 56.5667 57.2862ZM58.6543 21.4577C58.6543 21.146 58.907 20.8934 59.2186 20.8934C59.5303 20.8934 59.783 21.146 59.783 21.4577C59.783 21.7694 59.5303 22.022 59.2186 22.022C58.907 22.022 58.6543 21.7694 58.6543 21.4577Z" fill="#05390A"/>
</svg>
