<svg width="67" height="66" viewBox="0 0 67 66" fill="none" xmlns="http://www.w3.org/2000/svg">
<path fill-rule="evenodd" clip-rule="evenodd" d="M11.4116 10.9678C11.4116 9.0061 8.94502 8.14087 7.71293 9.65531L3.35133 15.0526L3.34779 15.057C2.73569 15.8222 2.7356 16.9137 3.3477 17.6788L7.57726 22.8188C8.83137 24.3554 11.2736 23.4186 11.2736 21.492V19.6977H13.919C14.6295 19.6977 15.2072 20.2754 15.2072 20.9859V30.7395C15.2072 31.3747 15.7222 31.8897 16.3574 31.8897C16.9926 31.8897 17.5076 31.3747 17.5076 30.7395V20.9859C17.5076 19.005 15.9 17.3973 13.919 17.3973H10.1234C9.48816 17.3973 8.9732 17.9123 8.9732 18.5475V20.8949L5.24704 16.3667L9.11122 11.5849V13.5902C9.11122 14.2254 9.62618 14.7404 10.2614 14.7404H15.7363C17.988 14.7404 19.8195 16.5718 19.8195 18.8235V26.4378C19.8195 27.073 20.3344 27.588 20.9697 27.588C21.6049 27.588 22.1198 27.073 22.1198 26.4378V18.8235C22.1198 15.3013 19.2585 12.44 15.7363 12.44H11.4116V10.9678ZM29.607 41.3374C29.607 39.2475 31.3012 37.5533 33.3912 37.5533C35.4811 37.5533 37.1753 39.2475 37.1753 41.3374C37.1753 43.4193 35.4941 45.1085 33.4153 45.1215L33.3909 45.1214L33.367 45.1215C31.2882 45.1085 29.607 43.4193 29.607 41.3374ZM39.4756 41.3374C39.4756 43.1208 38.7084 44.725 37.4859 45.8379C38.6955 46.2812 39.8037 46.9164 40.7875 47.705C41.5692 46.8737 42.5239 46.2043 43.5947 45.7553C42.8941 44.9917 42.4665 43.9736 42.4665 42.8557C42.4665 40.4863 44.3873 38.5655 46.7567 38.5655C49.1261 38.5655 51.0469 40.4863 51.0469 42.8557C51.0469 43.9736 50.6193 44.9917 49.9188 45.7552C51.5955 46.4588 52.9881 47.7043 53.8765 49.2695C55.201 51.5953 53.5089 54.4609 50.8518 54.4609H44.2216C43.7722 56.4835 41.9957 58.1415 39.648 58.1415H27.1454C24.8039 58.1415 23.0157 56.4813 22.5686 54.4609H15.7139C13.0619 54.4609 11.382 51.5917 12.6873 49.273L12.6916 49.2654L12.6916 49.2654C13.5868 47.7031 14.9809 46.4584 16.658 45.7552C15.9575 44.9916 15.53 43.9736 15.53 42.8557C15.53 40.4863 17.4508 38.5655 19.8202 38.5655C22.1896 38.5655 24.1104 40.4863 24.1104 42.8557C24.1104 43.9735 23.6829 44.9915 22.9825 45.755C24.0959 46.222 25.0837 46.9281 25.8802 47.8088C26.8947 46.977 28.0505 46.3088 29.306 45.8467C28.078 44.7334 27.3067 43.1255 27.3067 41.3374C27.3067 37.977 30.0308 35.2529 33.3912 35.2529C36.7515 35.2529 39.4756 37.977 39.4756 41.3374ZM33.3912 47.4219L33.3636 47.4218C30.7129 47.4293 28.3149 48.5212 26.5856 50.2746C26.5749 50.2865 26.5638 50.2982 26.5525 50.3097C25.979 50.8935 25.4749 51.5616 25.0629 52.2826L25.0602 52.2874C24.862 52.6305 24.7732 52.9804 24.7656 53.3352C24.7651 53.3613 24.7637 53.3871 24.7614 53.4127C24.7263 54.6706 25.7482 55.8412 27.1454 55.8412H39.648C41.0582 55.8412 42.0845 54.6559 42.0299 53.3592L42.0291 53.3358C42.0219 53.0054 41.9279 52.642 41.723 52.2874L41.7153 52.274L41.7154 52.274C41.2887 51.512 40.747 50.8158 40.1297 50.2087C40.0972 50.1768 40.0669 50.1431 40.0387 50.1079C38.3246 48.4503 36.0503 47.429 33.4188 47.4218L33.3912 47.4219ZM23.0656 51.139C23.4092 50.5381 23.8052 49.9657 24.2465 49.4332C23.1731 48.2004 21.5876 47.4218 19.8201 47.4218C17.6309 47.4218 15.7146 48.62 14.69 50.4048C14.2506 51.191 14.8247 52.1606 15.7139 52.1606H22.6322C22.7305 51.8143 22.8734 51.4721 23.0656 51.139ZM19.8202 40.8659C18.7212 40.8659 17.8303 41.7567 17.8303 42.8557C17.8303 43.9546 18.7212 44.8455 19.8202 44.8455C20.9191 44.8455 21.81 43.9546 21.81 42.8557C21.81 41.7567 20.9191 40.8659 19.8202 40.8659ZM43.72 51.1436C43.3508 50.4854 42.9172 49.8718 42.4359 49.3099C43.5128 48.1489 45.0507 47.4218 46.7572 47.4218C48.9489 47.4218 50.8641 48.6223 51.8759 50.4049L51.8771 50.4071C52.3216 51.1864 51.7596 52.1606 50.8518 52.1606H44.155C44.0537 51.8131 43.9086 51.4714 43.72 51.1436ZM46.7567 40.8659C45.6578 40.8659 44.7669 41.7567 44.7669 42.8557C44.7669 43.9546 45.6578 44.8455 46.7567 44.8455C47.8557 44.8455 48.7465 43.9546 48.7465 42.8557C48.7465 41.7567 47.8556 40.8659 46.7567 40.8659ZM58.0075 11.5851L61.8602 16.3551L58.134 20.8834V18.536C58.134 17.9008 57.619 17.3858 56.9838 17.3858H53.1882C51.2073 17.3858 49.5996 18.9935 49.5996 20.9744V30.728C49.5996 31.3632 50.1146 31.8782 50.7498 31.8782C51.385 31.8782 51.9 31.3632 51.9 30.728V20.9744C51.9 20.2639 52.4777 19.6862 53.1882 19.6862H55.8336V21.4805C55.8336 23.4071 58.2758 24.3439 59.5299 22.8074L63.7494 17.6796L63.7594 17.6673C64.3715 16.9021 64.3715 15.8107 63.7594 15.0455L59.4084 9.65847L59.4058 9.65531C58.1737 8.14087 55.7071 9.00609 55.7071 10.9678V12.44H51.3824C47.8602 12.44 44.9989 15.3014 44.9989 18.8235V26.4378C44.9989 27.073 45.5138 27.588 46.1491 27.588C46.7843 27.588 47.2992 27.073 47.2992 26.4378V18.8235C47.2992 16.5718 49.1307 14.7404 51.3824 14.7404H56.8573C57.4925 14.7404 58.0075 14.2254 58.0075 13.5902V11.5851ZM28.7514 20.0658L33.5214 16.2131L38.0497 19.9393H35.7023C35.067 19.9393 34.5521 20.4543 34.5521 21.0895V27.9601C34.5521 28.5954 35.067 29.1103 35.7023 29.1103C36.3375 29.1103 36.8524 28.5954 36.8524 27.9601V22.2397H38.6467C40.5734 22.2397 41.5102 19.7975 39.9736 18.5434L34.8459 14.3238L34.8335 14.3139C34.0684 13.7018 32.9769 13.7018 32.2118 14.3139L26.8247 18.665L26.8216 18.6675C25.3071 19.8996 26.1723 22.3662 28.134 22.3662H29.6063V27.9601C29.6063 28.5954 30.1212 29.1103 30.7565 29.1103C31.3917 29.1103 31.9066 28.5954 31.9066 27.9601V21.216C31.9066 20.5808 31.3917 20.0658 30.7565 20.0658H28.7514Z" fill="#05390A"/>
</svg>
